<?xml version="1.0" standalone="no"?>
<!DOCTYPE svg PUBLIC "-//W3C//DTD SVG 20010904//EN"
 "http://www.w3.org/TR/2001/REC-SVG-20010904/DTD/svg10.dtd">
<svg version="1.0" xmlns="http://www.w3.org/2000/svg"
 width="500.000000pt" height="500.000000pt" viewBox="0 0 500.000000 500.000000"
 preserveAspectRatio="xMidYMid meet">

<g transform="translate(0.000000,500.000000) scale(0.100000,-0.100000)"
fill="#000000" stroke="none">
<path d="M2170 3690 c-417 -75 -734 -300 -829 -587 -28 -84 -32 -175 -8 -200
16 -19 16 -21 -4 -39 -45 -40 -94 -149 -82 -180 7 -19 61 -32 101 -23 37 8 41
0 11 -27 -67 -61 -93 -169 -66 -277 9 -34 18 -89 21 -122 11 -131 117 -275
252 -342 63 -31 85 -36 185 -44 63 -4 420 -7 794 -6 661 2 682 3 737 23 120
44 213 125 266 231 34 67 41 93 52 188 5 39 13 92 19 118 20 89 -21 191 -98
248 l-29 21 39 39 c33 33 43 38 59 29 48 -26 143 0 159 43 17 44 -57 130 -122
142 -34 7 -35 8 -41 70 -13 131 -71 248 -178 361 -149 156 -350 261 -623 325
-134 31 -468 36 -615 9z m401 -37 c12 -31 9 -55 -8 -60 -13 -5 -33 54 -25 75
7 20 22 14 33 -15z m-117 1 c3 -9 6 -27 6 -41 0 -18 -5 -24 -17 -21 -23 4 -32
78 -10 78 8 0 18 -7 21 -16z m67 -22 c9 -43 21 -55 50 -50 21 3 24 8 23 41 -1
22 3 37 11 37 6 0 62 -9 124 -20 281 -51 486 -153 646 -321 101 -106 165 -242
165 -346 l0 -33 -1087 2 -1088 3 3 40 c20 257 258 492 617 608 71 23 155 42
277 62 l38 6 -17 -29 c-20 -36 -12 -62 21 -62 26 0 66 45 66 74 0 9 7 16 15
16 9 0 15 -10 15 -26 0 -36 17 -64 39 -64 26 0 43 24 41 57 -3 41 -2 45 17 41
10 -2 20 -17 24 -36z m-171 10 c0 -10 -11 -29 -25 -42 -21 -20 -25 -21 -30 -7
-8 19 22 67 41 67 8 0 14 -8 14 -18z m-331 -845 c31 -24 67 -50 79 -56 23 -12
21 -14 -38 -42 -43 -20 -90 -57 -165 -130 l-104 -101 -46 94 c-26 51 -58 108
-72 126 l-24 32 54 0 c62 0 132 31 193 85 21 19 45 34 53 35 8 0 40 -20 70
-43z m911 -3 c25 -26 64 -55 87 -66 l43 -19 -21 -22 c-12 -12 -31 -42 -42 -67
-19 -43 -21 -44 -27 -20 -10 38 -36 83 -57 102 -17 16 -51 18 -314 20 -283 3
-293 4 -264 20 17 9 45 31 64 48 18 16 36 30 38 30 3 0 31 -16 62 -35 60 -37
109 -55 152 -55 52 0 127 30 170 70 24 21 49 39 54 40 6 0 31 -21 55 -46z
m367 -1 c9 -16 26 -38 37 -50 l19 -23 -91 0 -92 0 47 48 c27 27 51 50 55 50 4
1 15 -10 25 -25z m-1702 -49 l30 -24 -92 0 c-51 0 -93 3 -93 6 0 9 22 48 38
66 14 17 17 17 51 -3 20 -11 50 -31 66 -45z m1905 -406 c0 -13 -34 -41 -67
-54 -45 -19 -1916 -21 -1960 -2 -29 12 -73 47 -73 57 0 3 472 6 1050 6 577 0
1050 -3 1050 -7z m-2020 -158 c32 -8 331 -10 1000 -8 l955 3 57 32 56 32 -10
-37 c-43 -157 -175 -276 -335 -302 -73 -12 -1416 -13 -1498 -1 -131 19 -252
107 -304 223 -16 35 -32 76 -35 91 l-7 28 38 -25 c21 -14 58 -30 83 -36z"/>
<path d="M2628 3609 c-10 -5 -18 -16 -18 -24 0 -23 34 -75 54 -81 47 -15 58
48 16 94 -23 25 -28 26 -52 11z m47 -35 c17 -26 14 -54 -4 -54 -14 0 -43 58
-36 70 10 16 22 11 40 -16z"/>
<path d="M2181 3569 c-17 -49 -14 -77 10 -84 25 -8 42 7 57 51 12 38 -1 64
-33 64 -17 0 -26 -8 -34 -31z m53 3 c6 -11 -21 -72 -33 -72 -18 0 -21 17 -10
49 10 29 32 41 43 23z"/>
<path d="M2442 3554 c-44 -31 -7 -128 39 -103 24 12 26 81 3 103 -19 19 -15
19 -42 0z m36 -52 c2 -32 0 -42 -12 -42 -17 0 -33 61 -21 80 13 22 30 3 33
-38z"/>
<path d="M2314 3523 c-17 -43 -10 -66 25 -71 17 -3 25 5 37 33 19 46 11 75
-22 75 -18 0 -27 -9 -40 -37z m56 8 c0 -24 -21 -61 -35 -61 -18 0 -19 11 -3
45 11 24 38 35 38 16z"/>
<path d="M2544 3525 c-18 -44 -18 -59 1 -75 20 -17 41 -7 60 31 22 42 13 79
-21 79 -19 0 -28 -8 -40 -35z m56 1 c0 -25 -19 -66 -30 -66 -17 0 -22 24 -11
53 11 28 41 37 41 13z"/>
<path d="M2670 1741 c-50 -10 -111 -47 -141 -86 l-26 -34 -24 37 c-39 60 -95
82 -210 82 -83 0 -100 -3 -123 -21 l-27 -21 -23 21 c-30 28 -77 27 -104 -2
-20 -21 -22 -34 -22 -124 0 -119 -10 -153 -43 -153 -41 0 -47 17 -47 136 0 97
-3 115 -21 138 -38 48 -109 32 -129 -30 l-12 -37 -24 31 c-36 45 -89 62 -200
62 -87 0 -97 -2 -119 -25 -25 -24 -25 -27 -25 -198 0 -171 0 -174 24 -196 22
-21 35 -23 138 -24 103 -2 117 0 156 22 23 14 42 27 42 31 0 3 6 15 14 25 13
18 15 18 42 -14 77 -92 247 -93 315 -2 26 36 39 39 39 12 0 -33 11 -51 41 -67
53 -27 109 8 109 68 0 43 15 41 51 -6 35 -46 76 -76 102 -76 9 0 28 11 43 23
35 30 37 77 4 112 -23 25 -22 55 4 55 8 0 17 -15 21 -36 9 -52 86 -126 148
-143 84 -24 185 -2 244 52 l22 20 10 -26 c16 -41 42 -48 183 -48 118 -1 133 1
151 20 20 19 20 19 36 0 9 -10 30 -22 48 -25 43 -9 83 30 83 81 0 19 3 35 8
35 4 0 27 -23 51 -51 24 -28 54 -55 67 -61 34 -16 80 6 93 43 12 34 6 55 -23
87 -17 19 -18 26 -8 40 74 102 43 224 -67 261 -19 6 -75 11 -126 11 -78 0 -96
-3 -119 -21 l-26 -20 -26 20 c-24 19 -40 21 -150 21 -115 0 -125 -2 -150 -24
-25 -21 -28 -32 -33 -101 -6 -77 -6 -77 -25 -56 -15 16 -17 24 -8 33 17 17 15
69 -3 95 -27 38 -137 67 -205 54z m-1024 -72 c33 -34 37 -90 8 -120 l-21 -20
34 -34 c35 -35 40 -58 21 -100 -20 -44 -55 -55 -176 -55 -91 0 -111 3 -116 16
-12 32 -7 319 7 333 8 9 41 12 114 9 95 -3 104 -5 129 -29z m189 9 c2 -13 6
-72 7 -131 3 -101 5 -110 27 -128 25 -21 71 -25 101 -9 29 15 40 65 40 176 0
61 4 105 11 109 5 4 21 4 35 1 24 -6 24 -7 24 -129 0 -139 -12 -176 -69 -214
-43 -29 -121 -31 -170 -5 -59 32 -71 69 -71 213 0 69 3 129 7 132 3 4 17 7 29
7 16 0 25 -7 29 -22z m558 6 c81 -39 90 -141 18 -201 l-26 -21 21 -24 c12 -12
29 -35 38 -49 15 -25 16 -28 1 -43 -27 -26 -41 -19 -95 49 -46 58 -55 64 -83
62 -31 -2 -32 -4 -37 -56 -6 -61 -27 -84 -54 -62 -14 11 -16 39 -14 180 1 91
3 145 5 119 2 -27 9 -48 14 -48 6 0 7 5 3 11 -4 8 0 8 15 0 19 -11 21 -9 21
14 0 24 2 25 70 25 58 0 73 -3 92 -23 24 -24 35 -27 56 -14 9 6 9 13 2 28 -22
40 -60 54 -164 60 l-101 5 92 2 c67 2 101 -2 126 -14z m252 -1 c-35 -18 -73
-51 -85 -73 -7 -13 -3 -16 20 -15 16 0 26 4 22 10 -3 5 -2 7 3 3 4 -4 20 1 35
12 42 30 44 24 4 -13 -84 -77 -36 -210 76 -209 55 1 80 17 80 52 0 27 -3 29
-42 32 -38 3 -43 6 -43 28 0 24 3 25 63 28 82 4 92 -5 92 -77 0 -69 -16 -94
-75 -116 -90 -35 -204 -2 -246 72 -36 62 -30 155 13 216 18 26 81 66 103 66 6
0 -3 -7 -20 -16z m173 -3 c34 -21 42 -50 18 -69 -10 -9 -24 -6 -57 9 -24 11
-37 20 -29 20 8 0 26 -6 40 -13 32 -17 50 -11 50 14 0 14 -13 26 -42 39 -24
11 -36 20 -28 20 8 0 30 -9 48 -20z m403 3 c11 -15 11 -16 -1 -5 -20 17 -234
17 -248 -1 -6 -7 -8 -31 -5 -56 3 -23 9 -37 13 -31 4 6 10 11 14 11 20 -3 25
1 29 22 2 12 5 1 6 -25 l1 -48 80 0 c67 0 81 -3 89 -18 17 -31 -6 -42 -91 -42
l-78 0 0 -45 0 -44 98 -3 c96 -3 97 -3 97 -28 l0 -25 -120 -5 c-162 -7 -155
-14 -155 179 0 123 3 152 16 165 12 13 39 16 128 16 96 0 116 -3 127 -17z
m199 8 l-95 -6 -3 -39 c-2 -21 1 -43 7 -49 8 -8 11 -8 11 1 0 6 7 9 15 6 10
-4 15 0 15 15 0 19 6 21 68 21 51 0 73 -4 88 -17 26 -24 53 -27 60 -8 7 18
-20 53 -51 66 -13 5 -15 8 -5 8 35 1 80 -59 80 -107 0 -41 -14 -70 -47 -98
l-24 -21 24 -29 c42 -51 49 -70 31 -88 -8 -9 -19 -16 -24 -16 -12 0 -43 30
-84 82 -31 39 -42 46 -69 45 -31 -2 -32 -3 -37 -56 -6 -61 -27 -85 -54 -62
-13 11 -16 40 -16 175 0 113 4 166 12 174 8 8 43 11 103 10 l90 -2 -95 -5z
m-190 -35 c0 -3 -4 -8 -10 -11 -5 -3 -10 -1 -10 4 0 6 5 11 10 11 6 0 10 -2
10 -4z m-507 -13 c-7 -2 -19 -2 -25 0 -7 3 -2 5 12 5 14 0 19 -2 13 -5z m445
-10 c-21 -2 -57 -2 -80 0 -24 2 -7 4 37 4 44 0 63 -2 43 -4z"/>
<path d="M1404 1677 c-3 -8 -4 -30 -2 -49 2 -25 8 -33 23 -33 13 0 21 8 23 23
6 41 17 22 14 -23 l-4 -45 60 0 c65 0 86 13 80 52 -2 14 -12 25 -28 29 -20 6
-21 7 -5 8 24 1 38 -8 53 -34 7 -12 12 -14 12 -6 0 11 3 11 15 1 25 -21 19 43
-6 66 -29 26 -225 35 -235 11z"/>
<path d="M1460 1445 l0 -45 68 0 c73 0 92 10 92 47 0 31 -28 43 -99 43 l-61 0
0 -45z"/>
<path d="M1780 1638 c0 -29 4 -48 8 -43 4 6 14 10 22 10 11 0 15 11 15 40 0
34 -3 40 -22 43 -21 3 -23 0 -23 -50z"/>
<path d="M2020 1647 c0 -37 4 -46 21 -50 24 -6 32 8 27 55 -2 25 -8 34 -25 36
-21 3 -23 -1 -23 -41z"/>
<path d="M2230 1575 l0 -55 59 0 c67 0 91 15 91 59 0 41 -17 51 -87 51 l-63 0
0 -55z"/>
<path d="M3380 1575 l0 -55 56 0 c73 0 94 12 94 53 0 47 -15 57 -87 57 l-63 0
0 -55z"/>
</g>
</svg>
